<?xml version="1.0" standalone="no"?>
<!DOCTYPE svg PUBLIC "-//W3C//DTD SVG 20010904//EN"
 "http://www.w3.org/TR/2001/REC-SVG-20010904/DTD/svg10.dtd">
<svg version="1.0" xmlns="http://www.w3.org/2000/svg"
 width="357.000000pt" height="296.000000pt" viewBox="0 0 357.000000 296.000000"
 preserveAspectRatio="xMidYMid meet">

<g transform="translate(0.000000,296.000000) scale(0.100000,-0.100000)"
fill="#000000" stroke="none">
<path d="M1669 2719 c-67 -10 -114 -35 -159 -86 -150 -171 -48 -428 183 -459
106 -15 231 62 277 168 31 72 25 175 -14 242 -15 25 -32 46 -39 46 -8 0 -9 -3
-1 -8 19 -13 44 -56 44 -77 0 -16 -2 -17 -10 -5 -8 12 -10 10 -10 -9 0 -13 -3
-22 -6 -18 -3 3 -18 -5 -32 -19 -54 -50 -126 -38 -176 29 -27 36 -29 106 -3
131 9 10 17 23 17 31 0 28 53 26 109 -4 11 -7 21 -9 21 -7 0 12 -65 38 -108
45 -26 4 -68 4 -93 0z"/>
<path d="M2555 2582 c-27 -13 -66 -51 -123 -121 -247 -302 -486 -496 -657
-531 -42 -9 -73 -9 -118 -1 -63 11 -92 8 -38 -4 17 -4 31 -13 31 -20 0 -9 -6
-12 -17 -8 -11 4 -14 3 -9 -5 11 -19 -57 -105 -118 -147 -79 -56 -223 55 -310
239 -84 175 -117 426 -56 426 10 0 21 4 24 9 10 16 54 -1 87 -32 26 -26 30
-28 20 -9 -19 36 -70 62 -124 62 -127 0 -196 -88 -183 -234 21 -229 131 -484
271 -628 120 -123 235 -176 398 -185 325 -18 641 148 869 457 68 92 110 161
224 360 80 141 88 160 87 207 -1 129 -142 219 -258 165z m-855 -917 c63 0 141
4 173 8 l57 8 -6 -43 c-8 -54 -25 -86 -61 -119 -53 -50 -82 -62 -142 -62 -119
0 -220 97 -212 205 1 14 7 16 39 10 20 -4 89 -7 152 -7z"/>
<path d="M2950 2153 c-191 -277 -446 -520 -715 -683 -47 -28 -159 -88 -248
-131 -89 -43 -149 -76 -133 -72 20 4 27 3 22 -6 -4 -6 -2 -11 4 -11 7 0 10 -6
7 -14 -3 -8 -1 -17 6 -20 7 -2 4 -5 -6 -5 -15 -1 -15 -3 4 -22 15 -15 29 -20
48 -16 26 6 177 72 234 103 15 8 31 12 37 9 5 -3 32 2 60 11 28 9 54 14 57 10
4 -3 1 -6 -5 -6 -6 0 -24 -12 -39 -26 -75 -69 -496 -292 -648 -343 -49 -16
-130 -37 -180 -47 -49 -9 -100 -20 -112 -25 -11 -4 -56 -52 -98 -106 -43 -54
-124 -143 -180 -198 -114 -112 -125 -127 -125 -182 0 -55 32 -101 87 -125 40
-18 51 -19 87 -8 67 20 195 113 396 289 79 69 192 178 151 145 l-24 -19 18 33
c11 17 22 32 26 32 3 0 5 12 3 27 -2 16 -1 20 2 10 5 -16 8 -15 26 9 16 20 23
23 30 12 7 -9 8 -7 3 8 -4 16 1 26 21 39 23 15 26 15 21 2 -16 -42 29 -16 119
70 177 168 251 213 333 199 119 -19 105 -164 -29 -296 -34 -33 -58 -65 -55
-70 3 -5 7 -22 9 -37 2 -16 7 -46 11 -67 6 -30 5 -37 -5 -31 -9 6 -9 3 0 -15
13 -25 67 -50 107 -50 107 0 366 265 473 484 104 211 87 386 -45 489 l-53 41
58 67 c118 137 202 285 259 457 30 94 47 162 39 162 -2 0 -28 -35 -58 -77z
m-1106 -1305 c-3 -4 -12 -4 -21 -1 -12 5 -15 2 -10 -10 3 -9 2 -19 -3 -22 -11
-7 -14 28 -4 38 9 8 44 4 38 -5z"/>
<path d="M1540 1955 c14 -8 30 -14 35 -14 6 0 -1 6 -15 14 -14 8 -29 14 -35
14 -5 0 1 -6 15 -14z"/>
<path d="M1054 1497 c-90 -101 -136 -214 -138 -332 -1 -76 17 -141 33 -119 7
11 26 16 68 17 34 1 35 3 9 76 -9 24 -16 67 -16 96 0 58 29 183 59 250 11 25
18 45 16 45 -1 0 -16 -15 -31 -33z"/>
</g>
</svg>
